HIERARCHY
ROOT Hips
{
	OFFSET 0.000000 0.000000 0.000000
	CHANNELS 6 Xposition Yposition Zposition Zrotation Yrotation Xrotation 
	JOINT LHipJoint
	{
		OFFSET 0.000000 0.000000 0.000000
		CHANNELS 3 Zrotation Yrotation Xrotation
		JOINT LeftUpLeg
		{
			OFFSET 1.363060 -1.794630 0.839290
			CHANNELS 3 Zrotation Yrotation Xrotation
			JOINT LeftLeg
			{
				OFFSET 2.448110 -6.726130 0.000000
				CHANNELS 3 Zrotation Yrotation Xrotation
				JOINT LeftFoot
				{
					OFFSET 2.562200 -7.039590 0.000000
					CHANNELS 3 Zrotation Yrotation Xrotation
					JOINT LeftToeBase
					{
						OFFSET 0.157640 -0.433110 2.322550
						CHANNELS 3 Zrotation Yrotation Xrotation
						End Site
						{
							OFFSET 0.000000 0.000000 0.000000
						}
					}
				}
			}
		}
	}
	JOINT RHipJoint
	{
		OFFSET 0.000000 0.000000 0.000000
		CHANNELS 3 Zrotation Yrotation Xrotation
		JOINT RightUpLeg
		{
			OFFSET -1.305520 -1.794630 0.839290
			CHANNELS 3 Zrotation Yrotation Xrotation
			JOINT RightLeg
			{
				OFFSET -2.542530 -6.985550 0.000000
				CHANNELS 3 Zrotation Yrotation Xrotation
				JOINT RightFoot
				{
					OFFSET -2.568260 -7.056230 0.000000
					CHANNELS 3 Zrotation Yrotation Xrotation
					JOINT RightToeBase
					{
						OFFSET -0.164730 -0.452590 2.363150
						CHANNELS 3 Zrotation Yrotation Xrotation
						End Site
						{
							OFFSET 0.000000 0.000000 0.000000
						}
					}
				}
			}
		}
	}
	JOINT LowerBack
	{
		OFFSET 0.000000 0.000000 0.000000
		CHANNELS 3 Zrotation Yrotation Xrotation
		JOINT Spine
		{
			OFFSET 0.028270 2.035590 -0.193380
			CHANNELS 3 Zrotation Yrotation Xrotation
			JOINT Spine1
			{
				OFFSET 0.056720 2.048850 -0.042750
				CHANNELS 3 Zrotation Yrotation Xrotation
				JOINT Neck
				{
					OFFSET 0.000000 0.000000 0.000000
					CHANNELS 3 Zrotation Yrotation Xrotation
					JOINT Neck1
					{
						OFFSET -0.054170 1.746240 0.172020
						CHANNELS 3 Zrotation Yrotation Xrotation
						JOINT Head
						{
							OFFSET 0.104070 1.761360 -0.123970
							CHANNELS 3 Zrotation Yrotation Xrotation
							End Site
							{
								OFFSET 0.000000 0.000000 0.000000
							}
						}
					}
				}
				JOINT LeftShoulder
				{
					OFFSET 0.000000 0.000000 0.000000
					CHANNELS 3 Zrotation Yrotation Xrotation
					JOINT LeftArm
					{
						OFFSET 3.362410 1.200890 -0.311210
						CHANNELS 3 Zrotation Yrotation Xrotation
						JOINT LeftForeArm
						{
							OFFSET 4.983000 -0.000000 -0.000000
							CHANNELS 3 Zrotation Yrotation Xrotation
							JOINT LeftHand
							{
								OFFSET 3.483560 -0.000000 -0.000000
								CHANNELS 3 Zrotation Yrotation Xrotation
								JOINT LeftFingerBase
								{
									OFFSET 0.000000 0.000000 0.000000
									CHANNELS 3 Zrotation Yrotation Xrotation
									JOINT LeftHandIndex1
									{
										OFFSET 0.715260 -0.000000 -0.000000
										CHANNELS 3 Zrotation Yrotation Xrotation
										End Site
										{
											OFFSET 0.000000 0.000000 0.000000
										}
									}
								}
								JOINT LThumb
								{
									OFFSET 0.000000 0.000000 0.000000
									CHANNELS 3 Zrotation Yrotation Xrotation
									End Site
									{
										OFFSET 0.000000 0.000000 0.000000
									}
								}
							}
						}
					}
				}
				JOINT RightShoulder
				{
					OFFSET 0.000000 0.000000 0.000000
					CHANNELS 3 Zrotation Yrotation Xrotation
					JOINT RightArm
					{
						OFFSET -3.136600 1.374050 -0.404650
						CHANNELS 3 Zrotation Yrotation Xrotation
						JOINT RightForeArm
						{
							OFFSET -5.241900 -0.000000 -0.000000
							CHANNELS 3 Zrotation Yrotation Xrotation
							JOINT RightHand
							{
								OFFSET -3.444170 -0.000000 -0.000000
								CHANNELS 3 Zrotation Yrotation Xrotation
								JOINT RightFingerBase
								{
									OFFSET 0.000000 0.000000 0.000000
									CHANNELS 3 Zrotation Yrotation Xrotation
									JOINT RightHandIndex1
									{
										OFFSET -0.622530 -0.000000 -0.000000
										CHANNELS 3 Zrotation Yrotation Xrotation
										End Site
										{
											OFFSET 0.000000 0.000000 0.000000
										}
									}
								}
								JOINT RThumb
								{
									OFFSET 0.000000 0.000000 0.000000
									CHANNELS 3 Zrotation Yrotation Xrotation
									End Site
									{
										OFFSET 0.000000 0.000000 0.000000
									}
								}
							}
						}
					}
				}
			}
		}
	}
}
MOTION
Frames: 6
Frame Time: 0.008333
32.394895 15.054505 12.756547 8.806925 -58.295130 6.722631 -9.366633 -24.078890 -12.679773 2.103468 27.660382 7.745557 -0.287987 21.552299 28.576483 0.602581 9.187500 -9.712786 11.254030 11.037776 -26.637608 -10.378101 6.152235 -10.990413 13.690253 3.806838 -44.458648 -10.319805 -34.467311 63.439341 -14.680927 -10.477508 2.289411 -12.791725 0.202205 -28.770096 15.842684 5.342908 28.936344 -1.743582 -1.457995 -7.641836 -1.313225 -4.212399 -2.791398 -8.935608 0.082708 -8.934033 -1.771097 0.891429 6.044573 11.935354 -8.104402 12.974303 11.532649 -7.053883 2.674073 -98.123743 -44.087983 15.404950 172.052526 -73.768778 -165.268495 -0.728109 12.193218 -1.791160 -0.000000 -0.000000 -0.000000 0.000000 0.000000 -0.000000 -0.000000 0.000000 -0.000000 -21.733446 1.624383 2.612757 80.948886 11.638688 29.629599 -102.530780 68.962127 -91.806583 12.482285 -6.020234 -1.336392 0.000000 0.000000 0.000000 -0.000000 0.000000 -0.000000 0.000000 0.000000 0.000000 
32.283784 15.063664 12.835586 8.450541 -59.324385 7.052456 -9.185243 -24.418084 -12.938776 2.373147 27.620432 9.127780 -0.746243 22.858847 27.326433 -0.089963 8.853272 -9.358766 10.393116 12.033951 -26.610593 -10.312634 6.327779 -11.129893 13.870855 3.650291 -43.919861 -9.891650 -34.343425 63.616142 -13.146422 -8.836200 2.346994 -11.513730 -0.777510 -27.392234 15.960689 5.394942 29.116237 -1.751733 -1.423412 -7.735113 -1.486523 -4.228515 -3.093517 -8.774521 0.264443 -8.937285 -1.818862 1.000302 5.847400 11.840109 -7.635665 12.894276 11.895293 -7.434343 2.592848 -98.527891 -44.524734 15.968577 172.377629 -73.139973 -165.613476 -1.578332 12.472948 -1.915076 -0.000000 -0.000000 -0.000000 0.000000 -0.000000 0.000000 0.000000 0.000000 0.000000 -21.650475 1.457435 2.507331 80.930042 11.530190 31.015395 -100.440175 67.874882 -85.414244 12.902453 -4.609737 -0.988516 -0.000000 0.000000 0.000000 -0.000000 -0.000000 0.000000 -0.000000 0.000000 0.000000 
32.164865 15.071471 12.906186 8.330184 -60.295026 7.218286 -8.836166 -24.634818 -13.146313 2.248498 27.836908 10.132085 -1.131022 23.760898 26.233081 -0.741813 8.548158 -8.974703 9.498640 12.870619 -26.372864 -10.274937 6.484088 -11.274369 14.052285 3.405481 -43.447032 -9.388420 -34.018140 63.830286 -11.318972 -7.432056 2.407519 -12.399435 -1.241955 -29.785504 15.831654 5.469903 29.240179 -1.714249 -1.518572 -7.838442 -0.949442 -4.303755 -3.600507 -9.198042 0.297153 -8.811369 -1.838176 1.092597 5.608690 12.345403 -7.709196 12.917241 11.585617 -7.727565 2.506113 -98.728020 -44.817548 16.754698 171.492586 -72.529077 -163.952490 -2.749344 11.943149 -1.939816 -0.000000 -0.000000 -0.000000 0.000000 0.000000 0.000000 -0.000000 0.000000 -0.000000 -22.097462 1.572621 2.473278 80.881005 11.375108 31.404633 -99.197934 67.701216 -84.493531 12.953400 -4.954216 -1.079082 0.000000 -0.000000 0.000000 -0.000000 0.000000 -0.000000 0.000000 -0.000000 0.000000 
32.031982 15.075676 12.964219 8.383637 -61.080541 7.249968 -8.315558 -24.514697 -13.337619 1.719656 27.897254 10.884948 -1.188152 24.833526 25.175018 -1.796800 7.748628 -8.468515 8.690788 13.326411 -25.811495 -10.187050 6.528858 -11.319732 14.349567 2.974578 -43.171388 -8.803447 -33.293247 64.166176 -10.084136 -6.140444 2.560787 -13.309469 -1.407242 -31.822323 15.427320 5.471736 29.249643 -1.593851 -1.842988 -7.952330 -0.414200 -4.526934 -3.854730 -9.452790 0.278212 -8.954971 -1.811388 1.147529 5.320928 11.760026 -7.330915 12.806238 11.375876 -7.597734 2.333306 -98.793112 -45.185461 17.425834 171.098613 -72.008761 -163.843212 -2.797961 12.726216 -2.075786 -0.000000 -0.000000 -0.000000 -0.000000 0.000000 -0.000000 0.000000 0.000000 -0.000000 -22.325165 1.836184 2.160591 80.870987 11.330963 32.317356 -97.458284 67.115164 -77.757683 12.119387 -2.438664 -0.422720 0.000000 -0.000000 0.000000 -0.000000 0.000000 0.000000 0.000000 -0.000000 0.000000 
31.889339 15.078078 13.029324 8.207146 -61.874507 7.605033 -7.775689 -24.253777 -13.524084 1.267288 28.064948 11.517064 -1.786916 24.537397 24.381712 -1.933202 8.106856 -8.287866 7.573400 14.083838 -25.174562 -10.145766 6.624971 -11.191412 14.463594 2.860650 -43.069930 -7.238163 -32.631102 64.227490 -9.963858 -5.507259 2.769235 -15.088278 -0.102806 -33.606961 15.065671 5.363584 29.006937 -1.499109 -1.977167 -8.047628 -0.563561 -4.569477 -3.855210 -9.078626 0.422334 -9.206046 -1.822818 1.159223 5.082772 12.534872 -7.540308 12.951920 11.740481 -7.667026 1.974706 -98.768363 -45.525622 18.220467 170.425506 -71.552806 -162.564562 -3.879578 12.466793 -2.137287 -0.000000 -0.000000 -0.000000 -0.000000 0.000000 0.000000 0.000000 -0.000000 -0.000000 -21.835149 1.718376 1.914043 80.833993 11.406608 32.657600 -95.662374 67.210368 -69.270675 11.712229 0.348627 0.267756 0.000000 0.000000 0.000000 0.000000 0.000000 0.000000 0.000000 0.000000 0.000000 
31.752102 15.090691 13.102462 7.935627 -63.188997 8.091420 -7.879595 -24.449405 -13.460806 1.949388 29.111174 11.975388 -1.810835 25.297075 23.842454 -4.143317 7.732582 -7.943244 7.121304 14.242787 -24.735567 -9.904240 6.739514 -11.412849 15.228239 2.300930 -42.846345 -6.607440 -31.500859 64.311234 -9.246570 -5.306722 2.771826 -16.665956 1.119741 -35.024168 15.133534 5.389249 29.101664 -1.577280 -1.851309 -8.183681 -1.120810 -4.363389 -4.217042 -8.749287 0.552007 -9.138893 -2.099945 1.207706 4.775588 12.046976 -7.300359 12.858903 12.037934 -7.977331 1.835005 -98.615556 -44.976106 20.318602 166.570631 -70.822879 -155.980810 -2.127631 10.500444 -1.649501 -0.000000 -0.000000 -0.000000 0.000000 -0.000000 -0.000000 -0.000000 0.000000 0.000000 -21.363648 1.822330 1.839019 80.967985 11.350504 32.478491 -94.695232 67.152766 -68.428019 11.843314 0.463098 0.298611 0.000000 -0.000000 0.000000 0.000000 0.000000 -0.000000 0.000000 -0.000000 0.000000 
